<svg width="5149" height="1572" viewBox="0 0 5149 1572" fill="none" xmlns="http://www.w3.org/2000/svg">
<g clip-path="url(#clip0_132_2)">
<path opacity="0.25" d="M5149 1572V965.601C4943.94 674.781 4704.51 544.174 4471.05 598.801C4169.15 669.148 3886.08 1035.16 3583.7 1090.05C3266.87 1147.17 2950.63 868.923 2647.44 628.145C2350.22 392.345 2054.02 302.217 1748.94 456.797C1593.83 535.397 1449.23 690.501 1300.77 841.151C903.263 1244.5 373.302 1759.2 -0.000167847 884.643V1572L5149 1572Z" fill="#412B71"/>
<path opacity="0.5" d="M5149 1572V1364.89C5093.22 1088.35 5030.4 827.134 4944.37 628.145C4722.45 114.363 4441.01 117.9 4185.36 372.302C4051.71 505.267 3927.53 713.819 3800.61 893.682C3625.02 1142.58 3437.04 1496.28 3239.24 1544.36C3083.65 1581.69 2935.02 1420.96 2816.16 1130.92C2679.84 798.314 2548.75 318.723 2371.5 174.623C2197.98 33.2742 2022.44 262.262 1860.33 492.691C1698.23 723.12 1537.83 1003.59 1358.65 1056.65C1102.36 1133.28 872.584 756.918 633.928 547.842C504.344 434.396 380.768 467.015 260.239 646.092C163.996 788.751 54.2789 998.875 -0.000167847 1291.14V1572L5149 1572Z" fill="url(#paint0_linear_132_2)"/>
<path d="M5149 1572V1498.25C4505.68 799.1 3801.29 637.708 3107.29 1014.33C2922.79 1114.42 2745.88 1277.9 2559.74 1360.96C2306.58 1474.01 2077.11 1200.62 1849.35 897.219C1596.49 560.418 1347.32 324.356 1067.56 393C696.273 484.7 327.562 991.801 -0.000167847 1504.01V1572L5149 1572Z" fill="url(#paint1_linear_132_2)"/>
</g>
<defs>
<linearGradient id="paint0_linear_132_2" x1="2574.5" y1="1572" x2="4457.03" y2="2571.97" gradientUnits="userSpaceOnUse">
<stop stop-color="#4F21B9"/>
<stop offset="1" stop-color="#4F21B9" stop-opacity="0"/>
</linearGradient>
<linearGradient id="paint1_linear_132_2" x1="2574.5" y1="1572" x2="3366.4" y2="-262.162" gradientUnits="userSpaceOnUse">
<stop stop-color="#2F1272"/>
<stop offset="0.991327" stop-color="#6421FF" stop-opacity="0"/>
</linearGradient>
<clipPath id="clip0_132_2">
<rect width="5149" height="1572" fill="white" transform="matrix(-1 0 0 -1 5149 1572)"/>
</clipPath>
</defs>
</svg>
