<svg width="4887" height="1404" viewBox="0 0 4887 1404" fill="none" xmlns="http://www.w3.org/2000/svg">
<g clip-path="url(#clip0_132_2)">
<path opacity="0.25" d="M4887 1404V862.407C4692.38 602.667 4465.13 486.018 4243.54 534.807C3957 597.636 3688.34 924.534 3401.35 973.557C3100.64 1024.57 2800.5 776.061 2512.73 561.015C2230.63 350.415 1949.51 269.919 1659.95 407.979C1512.73 478.179 1375.49 616.707 1234.58 751.257C857.302 1111.5 354.307 1571.19 -0.000274658 790.101V1404L4887 1404Z" fill="#8B5CF6"/>
<path opacity="0.5" d="M4887 1404V1219.02C4834.06 972.036 4774.44 738.738 4692.78 561.015C4482.15 102.141 4215.04 105.3 3972.4 332.514C3845.54 451.269 3727.68 637.533 3607.22 798.174C3440.57 1020.47 3262.15 1336.37 3074.41 1379.31C2926.74 1412.66 2785.67 1269.1 2672.86 1010.06C2543.48 712.998 2419.06 284.661 2250.83 155.961C2086.14 29.718 1919.53 234.234 1765.67 440.037C1611.81 645.84 1459.58 896.337 1289.52 943.722C1046.27 1012.17 828.183 676.026 601.671 489.294C478.681 387.972 361.393 417.105 246.997 577.044C155.651 704.457 51.5169 892.125 -0.000274658 1153.15V1404L4887 1404Z" fill="#8B5CF6"/>
<path d="M4887 1404V1338.13C4276.41 713.7 3607.87 569.556 2949.18 905.931C2774.06 995.319 2606.16 1141.33 2429.49 1215.51C2189.21 1316.48 1971.42 1072.31 1755.25 801.333C1515.25 500.526 1278.76 289.692 1013.24 351C660.844 432.9 310.894 885.807 -0.000274658 1343.28V1404L4887 1404Z" fill="#8B5CF6"/>
</g>
<defs>
<clipPath id="clip0_132_2">
<rect width="4887" height="1404" fill="white" transform="matrix(-1 0 0 -1 4887 1404)"/>
</clipPath>
</defs>
</svg>
