<svg width="4887" height="2157" viewBox="0 0 4887 2157" fill="none" xmlns="http://www.w3.org/2000/svg">
<g clip-path="url(#clip0_132_2)">
<path opacity="0.25" d="M4887 2157V1324.94C4692.38 925.892 4465.13 746.681 4243.54 821.637C3957 918.163 3688.34 1420.38 3401.35 1495.7C3100.64 1574.07 2800.5 1192.28 2512.73 861.901C2230.63 538.351 1949.51 414.683 1659.95 626.788C1512.73 734.638 1375.49 947.462 1234.58 1154.17C857.302 1707.62 354.307 2413.86 -0.000274658 1213.85V2157L4887 2157Z" fill="#8B5CF6"/>
<path opacity="0.5" d="M4887 2157V1872.82C4834.06 1493.36 4774.44 1134.94 4692.78 861.901C4482.15 156.922 4215.04 161.775 3972.4 510.849C3845.54 693.296 3727.68 979.458 3607.22 1226.25C3440.57 1567.78 3262.15 2053.1 3074.41 2119.07C2926.74 2170.3 2785.67 1949.75 2672.86 1551.78C2543.48 1095.4 2419.06 437.332 2250.83 239.607C2086.14 45.6565 1919.53 359.859 1765.67 676.04C1611.81 992.22 1459.58 1377.06 1289.52 1449.86C1046.27 1555.02 828.183 1038.6 601.671 751.714C478.681 596.051 361.393 640.809 246.997 886.527C155.651 1082.27 51.5169 1370.59 -0.000274658 1771.62V2157L4887 2157Z" fill="#8B5CF6"/>
<path d="M4887 2157V2055.8C4276.41 1096.47 3607.87 875.023 2949.18 1391.8C2774.06 1529.13 2606.16 1753.46 2429.49 1867.42C2189.21 2022.55 1971.42 1647.41 1755.25 1231.11C1515.25 768.971 1278.76 445.061 1013.24 539.25C660.844 665.075 310.894 1360.89 -0.000274658 2063.71V2157L4887 2157Z" fill="#8B5CF6"/>
</g>
<defs>
<clipPath id="clip0_132_2">
<rect width="4887" height="2157" fill="white" transform="matrix(-1 0 0 -1 4887 2157)"/>
</clipPath>
</defs>
</svg>
