<svg width="3841" height="346" viewBox="0 0 3841 346" fill="none" xmlns="http://www.w3.org/2000/svg">
<g clip-path="url(#clip0_132_2)">
<path opacity="0.25" d="M3840.79 345.964V212.886C3687.86 149.064 3509.3 120.402 3335.19 132.39C3110.04 147.828 2898.94 228.152 2673.43 240.198C2437.14 252.732 2201.3 191.67 1975.19 138.83C1753.53 87.0819 1532.63 67.3028 1305.11 101.226C1189.43 118.476 1081.59 152.514 970.872 185.575C674.424 274.092 279.192 387.046 0.791691 195.12V345.964L3840.79 345.964Z" fill="#8B5CF6"/>
<path opacity="0.5" d="M3840.79 345.964V300.513C3799.19 239.824 3752.34 182.499 3688.18 138.83C3522.68 26.0771 3312.79 26.8533 3122.14 82.6834C3022.46 111.863 2929.85 157.631 2835.19 197.103C2704.25 251.726 2564.06 329.348 2416.54 339.898C2300.5 348.092 2189.66 312.817 2101.02 249.167C1999.35 176.174 1901.59 70.9251 1769.4 39.3015C1639.99 8.28162 1509.08 58.5344 1388.18 109.103C1267.29 159.672 1147.67 221.224 1014.04 232.867C822.904 249.685 651.544 167.09 473.56 121.207C376.92 96.3103 284.76 103.469 194.872 142.768C123.096 174.076 41.2717 220.189 0.791691 284.327V345.964L3840.79 345.964Z" fill="#8B5CF6"/>
<path d="M3840.79 345.964V329.779C3361.02 176.347 2835.7 140.928 2318.14 223.581C2180.54 245.545 2048.6 281.423 1909.78 299.65C1720.98 324.46 1549.85 264.462 1379.99 197.88C1191.42 123.967 1005.59 72.1613 796.952 87.2257C520.056 107.35 245.08 218.636 0.791691 331.044V345.964L3840.79 345.964Z" fill="#8B5CF6"/>
</g>
<defs>
<clipPath id="clip0_132_2">
<rect width="3840" height="344.985" fill="white" transform="matrix(-1 0 0 -1 3840.79 345.964)"/>
</clipPath>
</defs>
</svg>
